<mxfile host="app.diagrams.net" modified="2023-10-14T15:21:43.009Z" agent="Mozilla/5.0 (Windows NT 10.0; Win64; x64) AppleWebKit/537.36 (KHTML, like Gecko) Chrome/117.0.0.0 Safari/537.36" etag="LmbiqRQf1DjUbNTppgpI" version="22.0.4" type="github">
  <diagram id="C5RBs43oDa-KdzZeNtuy" name="Page-1">
    <mxGraphModel dx="1137" dy="663" grid="1" gridSize="10" guides="1" tooltips="1" connect="1" arrows="1" fold="1" page="1" pageScale="1" pageWidth="827" pageHeight="1169" math="0" shadow="0">
      <root>
        <mxCell id="WIyWlLk6GJQsqaUBKTNV-0" />
        <mxCell id="WIyWlLk6GJQsqaUBKTNV-1" parent="WIyWlLk6GJQsqaUBKTNV-0" />
        <mxCell id="JMjuxFMg3yjq0VnMGfmU-11" style="edgeStyle=orthogonalEdgeStyle;rounded=0;orthogonalLoop=1;jettySize=auto;html=1;" edge="1" parent="WIyWlLk6GJQsqaUBKTNV-1" source="JMjuxFMg3yjq0VnMGfmU-10">
          <mxGeometry relative="1" as="geometry">
            <mxPoint x="405.0000000000002" y="210" as="targetPoint" />
          </mxGeometry>
        </mxCell>
        <mxCell id="JMjuxFMg3yjq0VnMGfmU-10" value="START" style="ellipse;whiteSpace=wrap;html=1;" vertex="1" parent="WIyWlLk6GJQsqaUBKTNV-1">
          <mxGeometry x="270" y="50" width="270" height="100" as="geometry" />
        </mxCell>
        <mxCell id="JMjuxFMg3yjq0VnMGfmU-13" style="edgeStyle=orthogonalEdgeStyle;rounded=0;orthogonalLoop=1;jettySize=auto;html=1;" edge="1" parent="WIyWlLk6GJQsqaUBKTNV-1" source="JMjuxFMg3yjq0VnMGfmU-12">
          <mxGeometry relative="1" as="geometry">
            <mxPoint x="400.0000000000002" y="360" as="targetPoint" />
          </mxGeometry>
        </mxCell>
        <mxCell id="JMjuxFMg3yjq0VnMGfmU-12" value="1-100" style="shape=parallelogram;perimeter=parallelogramPerimeter;whiteSpace=wrap;html=1;fixedSize=1;" vertex="1" parent="WIyWlLk6GJQsqaUBKTNV-1">
          <mxGeometry x="260" y="210" width="280" height="90" as="geometry" />
        </mxCell>
        <mxCell id="JMjuxFMg3yjq0VnMGfmU-16" style="edgeStyle=orthogonalEdgeStyle;rounded=0;orthogonalLoop=1;jettySize=auto;html=1;" edge="1" parent="WIyWlLk6GJQsqaUBKTNV-1" source="JMjuxFMg3yjq0VnMGfmU-14">
          <mxGeometry relative="1" as="geometry">
            <mxPoint x="394.9999999999998" y="510" as="targetPoint" />
          </mxGeometry>
        </mxCell>
        <mxCell id="JMjuxFMg3yjq0VnMGfmU-14" value="TEBAK" style="shape=parallelogram;perimeter=parallelogramPerimeter;whiteSpace=wrap;html=1;fixedSize=1;" vertex="1" parent="WIyWlLk6GJQsqaUBKTNV-1">
          <mxGeometry x="250" y="360" width="290" height="90" as="geometry" />
        </mxCell>
        <mxCell id="JMjuxFMg3yjq0VnMGfmU-19" style="edgeStyle=orthogonalEdgeStyle;rounded=0;orthogonalLoop=1;jettySize=auto;html=1;" edge="1" parent="WIyWlLk6GJQsqaUBKTNV-1" source="JMjuxFMg3yjq0VnMGfmU-17">
          <mxGeometry relative="1" as="geometry">
            <mxPoint x="384.9999999999998" y="660" as="targetPoint" />
          </mxGeometry>
        </mxCell>
        <mxCell id="JMjuxFMg3yjq0VnMGfmU-17" value="MENEBAK" style="rounded=1;whiteSpace=wrap;html=1;" vertex="1" parent="WIyWlLk6GJQsqaUBKTNV-1">
          <mxGeometry x="250" y="500" width="270" height="100" as="geometry" />
        </mxCell>
        <mxCell id="JMjuxFMg3yjq0VnMGfmU-22" value="NO" style="edgeStyle=orthogonalEdgeStyle;rounded=0;orthogonalLoop=1;jettySize=auto;html=1;" edge="1" parent="WIyWlLk6GJQsqaUBKTNV-1" source="JMjuxFMg3yjq0VnMGfmU-20">
          <mxGeometry relative="1" as="geometry">
            <mxPoint x="385" y="840" as="targetPoint" />
          </mxGeometry>
        </mxCell>
        <mxCell id="JMjuxFMg3yjq0VnMGfmU-52" value="YES" style="edgeStyle=orthogonalEdgeStyle;rounded=0;orthogonalLoop=1;jettySize=auto;html=1;entryX=0;entryY=0.5;entryDx=0;entryDy=0;" edge="1" parent="WIyWlLk6GJQsqaUBKTNV-1" source="JMjuxFMg3yjq0VnMGfmU-20" target="JMjuxFMg3yjq0VnMGfmU-39">
          <mxGeometry relative="1" as="geometry" />
        </mxCell>
        <mxCell id="JMjuxFMg3yjq0VnMGfmU-20" value="TEBAK=ANGKA" style="rhombus;whiteSpace=wrap;html=1;" vertex="1" parent="WIyWlLk6GJQsqaUBKTNV-1">
          <mxGeometry x="242.5" y="660" width="285" height="130" as="geometry" />
        </mxCell>
        <mxCell id="JMjuxFMg3yjq0VnMGfmU-26" style="edgeStyle=orthogonalEdgeStyle;rounded=0;orthogonalLoop=1;jettySize=auto;html=1;" edge="1" parent="WIyWlLk6GJQsqaUBKTNV-1" source="JMjuxFMg3yjq0VnMGfmU-23">
          <mxGeometry relative="1" as="geometry">
            <mxPoint x="385" y="1030" as="targetPoint" />
          </mxGeometry>
        </mxCell>
        <mxCell id="JMjuxFMg3yjq0VnMGfmU-35" style="edgeStyle=orthogonalEdgeStyle;rounded=0;orthogonalLoop=1;jettySize=auto;html=1;" edge="1" parent="WIyWlLk6GJQsqaUBKTNV-1" source="JMjuxFMg3yjq0VnMGfmU-23">
          <mxGeometry relative="1" as="geometry">
            <mxPoint x="620" y="910" as="targetPoint" />
          </mxGeometry>
        </mxCell>
        <mxCell id="JMjuxFMg3yjq0VnMGfmU-23" value="FALS E/S SALAH" style="rhombus;whiteSpace=wrap;html=1;" vertex="1" parent="WIyWlLk6GJQsqaUBKTNV-1">
          <mxGeometry x="245" y="840" width="280" height="140" as="geometry" />
        </mxCell>
        <mxCell id="JMjuxFMg3yjq0VnMGfmU-27" style="edgeStyle=orthogonalEdgeStyle;rounded=0;orthogonalLoop=1;jettySize=auto;html=1;" edge="1" parent="WIyWlLk6GJQsqaUBKTNV-1" source="JMjuxFMg3yjq0VnMGfmU-25">
          <mxGeometry relative="1" as="geometry">
            <mxPoint x="385" y="1180" as="targetPoint" />
          </mxGeometry>
        </mxCell>
        <mxCell id="JMjuxFMg3yjq0VnMGfmU-25" value="ANGKA AKU LEBIH KECILL" style="rounded=1;whiteSpace=wrap;html=1;" vertex="1" parent="WIyWlLk6GJQsqaUBKTNV-1">
          <mxGeometry x="325" y="1030" width="120" height="110" as="geometry" />
        </mxCell>
        <mxCell id="JMjuxFMg3yjq0VnMGfmU-32" value="FINISH" style="ellipse;whiteSpace=wrap;html=1;" vertex="1" parent="WIyWlLk6GJQsqaUBKTNV-1">
          <mxGeometry x="315" y="1180" width="135" height="70" as="geometry" />
        </mxCell>
        <mxCell id="JMjuxFMg3yjq0VnMGfmU-36" value="" style="rounded=1;whiteSpace=wrap;html=1;" vertex="1" parent="WIyWlLk6GJQsqaUBKTNV-1">
          <mxGeometry x="620" y="855" width="130" height="110" as="geometry" />
        </mxCell>
        <mxCell id="JMjuxFMg3yjq0VnMGfmU-37" value="ANGKAK U LEBIH BESAR" style="text;strokeColor=none;align=center;fillColor=none;html=1;verticalAlign=middle;whiteSpace=wrap;rounded=0;" vertex="1" parent="WIyWlLk6GJQsqaUBKTNV-1">
          <mxGeometry x="655" y="895" width="60" height="30" as="geometry" />
        </mxCell>
        <mxCell id="JMjuxFMg3yjq0VnMGfmU-39" value="MENANG" style="shape=dataStorage;whiteSpace=wrap;html=1;fixedSize=1;" vertex="1" parent="WIyWlLk6GJQsqaUBKTNV-1">
          <mxGeometry x="610" y="685" width="150" height="80" as="geometry" />
        </mxCell>
      </root>
    </mxGraphModel>
  </diagram>
</mxfile>
